<svg width="30" height="30" viewBox="0 0 30 30" fill="none" xmlns="http://www.w3.org/2000/svg">
<rect x="18" y="6" width="3" height="6" fill="#E05A3A"/>
<rect x="12" y="6" width="3" height="6" fill="#E05A3A"/>
<rect x="3" y="21" width="24" height="3" fill="#E05A3A"/>
<rect x="3" y="15" width="24" height="6" fill="#E05A3A"/>
<rect x="6" y="12" width="18" height="3" fill="#E05A3A"/>
<rect x="27" y="3" width="3" height="15" fill="#E05A3A"/>
<rect x="24" width="3" height="3" fill="#E05A3A"/>
<rect x="21" width="3" height="3" fill="#E05A3A"/>
<rect x="24" y="3" width="3" height="3" fill="#E05A3A"/>
<rect y="3" width="3" height="15" fill="#E05A3A"/>
<rect x="6" width="3" height="3" fill="#E05A3A"/>
<rect x="3" width="3" height="3" fill="#E05A3A"/>
<rect x="3" y="3" width="3" height="3" fill="#E05A3A"/>
<rect y="24" width="3" height="6" fill="#E05A3A"/>
<rect x="27" y="24" width="3" height="6" fill="#E05A3A"/>
<rect x="18" y="24" width="3" height="6" fill="#E05A3A"/>
<rect x="9" y="24" width="3" height="6" fill="#E05A3A"/>
</svg>
