<svg width="12" height="12" viewBox="0 0 12 12" fill="none" xmlns="http://www.w3.org/2000/svg">
<rect x="6" y="6" width="4" height="3" fill="#E05A3A"/>
<rect x="6" y="5" width="3" height="5" fill="#E05A3A"/>
<rect x="7" y="3" width="1" height="2" fill="#E05A3A"/>
<rect x="10" y="6" width="1" height="1" fill="#E05A3A"/>
<rect x="11" y="5" width="1" height="2" fill="#E05A3A"/>
<rect x="10" y="7" width="1" height="1" fill="#E05A3A"/>
<rect x="9" width="1" height="1" fill="#E05A3A"/>
<rect x="9" y="9" width="2" height="1" fill="#E05A3A"/>
<rect x="11" y="10" width="1" height="2" fill="#E05A3A"/>
<rect x="8" y="10" width="1" height="2" fill="#E05A3A"/>
<rect x="9" y="3" width="1" height="1" fill="#E05A3A"/>
<rect x="9" y="2" width="1" height="1" fill="#E05A3A"/>
<rect x="10" y="3" width="1" height="2" fill="#E05A3A"/>
<rect x="11" y="1" width="1" height="4" fill="#E05A3A"/>
<rect x="10" width="1" height="2" fill="#E05A3A"/>
<rect width="4" height="3" transform="matrix(-1 0 0 1 6 6)" fill="#E05A3A"/>
<rect width="3" height="5" transform="matrix(-1 0 0 1 6 5)" fill="#E05A3A"/>
<rect width="1" height="2" transform="matrix(-1 0 0 1 5 3)" fill="#E05A3A"/>
<rect width="1" height="1" transform="matrix(-1 0 0 1 2 6)" fill="#E05A3A"/>
<rect width="1" height="2" transform="matrix(-1 0 0 1 1 5)" fill="#E05A3A"/>
<rect width="1" height="1" transform="matrix(-1 0 0 1 2 7)" fill="#E05A3A"/>
<rect width="1" height="1" transform="matrix(-1 0 0 1 3 0)" fill="#E05A3A"/>
<rect width="2" height="1" transform="matrix(-1 0 0 1 3 9)" fill="#E05A3A"/>
<rect width="1" height="2" transform="matrix(-1 0 0 1 1 10)" fill="#E05A3A"/>
<rect width="1" height="2" transform="matrix(-1 0 0 1 4 10)" fill="#E05A3A"/>
<rect width="1" height="1" transform="matrix(-1 0 0 1 3 3)" fill="#E05A3A"/>
<rect width="1" height="1" transform="matrix(-1 0 0 1 3 2)" fill="#E05A3A"/>
<rect width="1" height="2" transform="matrix(-1 0 0 1 2 3)" fill="#E05A3A"/>
<rect width="1" height="4" transform="matrix(-1 0 0 1 1 1)" fill="#E05A3A"/>
<rect width="1" height="2" transform="matrix(-1 0 0 1 2 0)" fill="#E05A3A"/>
</svg>
