<svg width="368" height="82" viewBox="0 0 368 82" fill="none" xmlns="http://www.w3.org/2000/svg">
<path d="M18 9H9V36H18V18H27V36H36V18H45V36H54V9H45V0H63V66L54 71.333V63H45V76.666L36 82V63H27V82L18 76.666V63H9V71.333L0 66V0H18V9Z" fill="#FF6B4A"/>
<path d="M105.256 64.524C101.075 64.524 97.3413 63.5853 94.056 61.708C90.8133 59.8307 88.2533 57.1427 86.376 53.644C84.5413 50.1027 83.624 45.836 83.624 40.844C83.624 36.0227 84.4987 31.8413 86.248 28.3C88.04 24.716 90.5787 21.9427 93.864 19.98C97.1493 18.0173 101.011 17.036 105.448 17.036C111.549 17.036 116.285 18.5293 119.656 21.516C123.069 24.5027 125.267 28.7907 126.248 34.38L114.664 34.828C114.195 32.0973 113.171 29.964 111.592 28.428C110.013 26.892 107.965 26.124 105.448 26.124C103.229 26.124 101.331 26.7427 99.752 27.98C98.216 29.2173 97.0427 30.9453 96.232 33.164C95.464 35.3827 95.08 37.9427 95.08 40.844C95.08 43.8307 95.4853 46.412 96.296 48.588C97.1493 50.764 98.344 52.4493 99.88 53.644C101.416 54.8387 103.251 55.436 105.384 55.436C108.157 55.436 110.291 54.6253 111.784 53.004C113.32 51.34 114.301 49.0573 114.728 46.156L126.376 46.604C125.736 50.4013 124.52 53.644 122.728 56.332C120.936 58.9773 118.589 61.004 115.688 62.412C112.787 63.82 109.309 64.524 105.256 64.524ZM130.047 63.5V29.068H140.607L140.991 39.5L140.159 39.372C140.756 35.7027 141.759 33.0787 143.167 31.5C144.575 29.8787 146.537 29.068 149.055 29.068H152.063V37.964H148.991C147.156 37.964 145.663 38.1773 144.511 38.604C143.359 39.0307 142.484 39.7347 141.887 40.716C141.332 41.6547 141.055 42.956 141.055 44.62V63.5H130.047ZM164.812 64.268C161.228 64.268 158.284 63.436 155.98 61.772C153.676 60.108 152.524 57.804 152.524 54.86C152.524 51.8307 153.505 49.484 155.468 47.82C157.43 46.156 160.289 44.94 164.044 44.172L174.732 41.996C174.732 39.9907 174.284 38.476 173.388 37.452C172.534 36.3853 171.297 35.852 169.676 35.852C168.054 35.852 166.774 36.2573 165.836 37.068C164.94 37.836 164.364 38.9453 164.108 40.396L153.1 40.012C153.782 36.044 155.553 33.1 158.412 31.18C161.27 29.26 165.025 28.3 169.676 28.3C175.052 28.3 179.062 29.516 181.708 31.948C184.396 34.38 185.74 38.0067 185.74 42.828V53.708C185.74 54.7747 185.91 55.4787 186.252 55.82C186.636 56.1613 187.148 56.332 187.788 56.332H188.62V63.5C188.278 63.628 187.724 63.7347 186.956 63.82C186.188 63.9053 185.441 63.948 184.716 63.948C183.393 63.948 182.113 63.7347 180.876 63.308C179.638 62.8387 178.614 62.028 177.804 60.876C176.993 59.6813 176.588 57.9747 176.588 55.756L177.42 56.588C176.993 58.124 176.225 59.4893 175.116 60.684C174.049 61.836 172.662 62.732 170.956 63.372C169.249 63.9693 167.201 64.268 164.812 64.268ZM167.692 57.1C169.057 57.1 170.273 56.8227 171.34 56.268C172.406 55.7133 173.238 54.9027 173.836 53.836C174.433 52.7693 174.732 51.4467 174.732 49.868V48.46L168.076 49.996C166.753 50.2947 165.708 50.764 164.94 51.404C164.214 52.0013 163.852 52.812 163.852 53.836C163.852 54.86 164.172 55.6707 164.812 56.268C165.452 56.8227 166.412 57.1 167.692 57.1ZM211.951 64.268C209.519 64.268 207.429 63.7773 205.679 62.796C203.973 61.772 202.629 60.3427 201.647 58.508L201.455 63.5H190.831V18.06H201.839V33.996C202.778 32.332 204.101 30.9667 205.807 29.9C207.557 28.8333 209.605 28.3 211.951 28.3C214.853 28.3 217.349 29.0467 219.439 30.54C221.573 32.0333 223.215 34.124 224.368 36.812C225.562 39.5 226.16 42.6573 226.16 46.284C226.16 49.9107 225.562 53.068 224.368 55.756C223.215 58.444 221.573 60.5347 219.439 62.028C217.349 63.5213 214.853 64.268 211.951 64.268ZM208.495 56.14C210.373 56.14 211.887 55.2867 213.039 53.58C214.234 51.8307 214.831 49.3987 214.831 46.284C214.831 43.1267 214.255 40.6947 213.103 38.988C211.994 37.2813 210.479 36.428 208.559 36.428C207.151 36.428 205.935 36.812 204.911 37.58C203.887 38.348 203.119 39.4787 202.607 40.972C202.095 42.4227 201.839 44.1933 201.839 46.284C201.839 48.332 202.095 50.1027 202.607 51.596C203.119 53.0467 203.866 54.1773 204.847 54.988C205.871 55.756 207.087 56.14 208.495 56.14ZM235.837 63.5L225.725 29.068H236.669L241.917 50.572L247.613 29.068H256.189L261.949 50.572L267.197 29.068H278.141L268.029 63.5H257.853L251.901 43.468L246.013 63.5H235.837ZM280.804 63.5V29.068H291.812V63.5H280.804ZM280.612 25.228V17.036H292.004V25.228H280.612ZM312.495 64.268C308.783 64.268 305.69 63.7773 303.215 62.796C300.741 61.772 298.842 60.3853 297.519 58.636C296.239 56.8867 295.514 54.9027 295.343 52.684L306.479 52.3C306.735 53.836 307.354 54.988 308.335 55.756C309.317 56.524 310.725 56.908 312.559 56.908C314.053 56.908 315.205 56.6733 316.015 56.204C316.826 55.692 317.231 54.9453 317.231 53.964C317.231 53.2813 317.061 52.7267 316.719 52.3C316.421 51.8733 315.802 51.4893 314.863 51.148C313.967 50.8067 312.623 50.4867 310.831 50.188C307.077 49.5907 304.133 48.8653 301.999 48.012C299.866 47.116 298.351 45.9853 297.455 44.62C296.602 43.2547 296.175 41.548 296.175 39.5C296.175 36.1293 297.498 33.42 300.143 31.372C302.831 29.324 306.885 28.3 312.303 28.3C315.674 28.3 318.49 28.812 320.751 29.836C323.055 30.86 324.826 32.2893 326.063 34.124C327.343 35.916 328.133 38.0067 328.431 40.396L317.487 40.78C317.359 39.7133 317.061 38.796 316.591 38.028C316.122 37.26 315.525 36.684 314.799 36.3C314.074 35.8733 313.199 35.66 312.175 35.66C310.725 35.66 309.573 35.98 308.719 36.62C307.909 37.2173 307.503 38.0493 307.503 39.116C307.503 39.8413 307.674 40.46 308.015 40.972C308.399 41.4413 309.018 41.8253 309.871 42.124C310.725 42.4227 311.877 42.6787 313.327 42.892C317.039 43.3613 320.005 44.0653 322.223 45.004C324.442 45.9 326.042 47.0733 327.023 48.524C328.047 49.932 328.559 51.66 328.559 53.708C328.559 55.9693 327.898 57.8893 326.575 59.468C325.295 61.0467 323.461 62.2413 321.071 63.052C318.682 63.8627 315.823 64.268 312.495 64.268ZM348.281 64.268C344.697 64.268 341.561 63.5213 338.873 62.028C336.185 60.5347 334.094 58.444 332.601 55.756C331.108 53.068 330.361 49.9107 330.361 46.284C330.361 42.6573 331.108 39.5213 332.601 36.876C334.094 34.188 336.164 32.0973 338.809 30.604C341.497 29.068 344.633 28.3 348.217 28.3C351.801 28.3 354.894 29.068 357.497 30.604C360.142 32.0973 362.169 34.252 363.577 37.068C364.985 39.884 365.689 43.2333 365.689 47.116V49.164H341.753C341.881 51.5533 342.542 53.3453 343.737 54.54C344.974 55.692 346.553 56.268 348.473 56.268C349.924 56.268 351.14 55.9907 352.121 55.436C353.102 54.8387 353.806 53.8787 354.233 52.556L365.241 53.196C364.302 56.78 362.318 59.532 359.289 61.452C356.26 63.3293 352.59 64.268 348.281 64.268ZM341.753 42.892H354.553C354.468 40.6307 353.849 38.9453 352.697 37.836C351.545 36.684 350.052 36.108 348.217 36.108C346.468 36.108 344.996 36.7053 343.801 37.9C342.649 39.0947 341.966 40.7587 341.753 42.892Z" fill="#FF6B4A"/>
</svg>
